<svg width="20" height="20" viewBox="0 0 20 20" fill="none" xmlns="http://www.w3.org/2000/svg">
<path fill-rule="evenodd" clip-rule="evenodd" d="M10 0.5C15.2383 0.5 19.5 4.7617 19.5 10C19.5 15.2383 15.2383 19.5 10 19.5C4.7617 19.5 0.5 15.2383 0.5 10C0.5 4.7617 4.7617 0.5 10 0.5ZM10 1.925C5.54735 1.925 1.925 5.54735 1.925 10C1.925 14.4527 5.54735 18.075 10 18.075C14.4527 18.075 18.075 14.4527 18.075 10C18.075 5.54735 14.4527 1.925 10 1.925ZM9.67814 5.34063C10.0724 5.34063 10.3906 5.65983 10.3906 6.05313V10.254L13.6254 12.1825C13.9626 12.3849 14.0738 12.8219 13.8724 13.1601C13.7384 13.3833 13.5019 13.5078 13.2596 13.5078C13.1352 13.5078 13.0098 13.4755 12.8948 13.408L9.31334 11.2715C9.09864 11.1423 8.96564 10.9095 8.96564 10.6587V6.05313C8.96564 5.65983 9.28484 5.34063 9.67814 5.34063Z" fill="#FF1D6C"/>
</svg>
