<svg width="24" height="24" viewBox="0 0 24 24" fill="none" xmlns="http://www.w3.org/2000/svg">
<path d="M20.5018 8.82642C20.5018 4.12632 16.692 0.309998 12 0.309998C7.30795 0.309998 3.49817 4.12632 3.49817 8.82642C3.49817 12.6829 6.18506 16.1377 9.87453 17.1018L10.5964 19.0301C8.59124 19.1506 5.22259 19.6326 5.22259 21.3199C5.22259 23.6097 11.3182 23.69 12.0401 23.69C12.7619 23.69 18.8576 23.6097 18.8576 21.3199C18.8576 19.5925 15.4488 19.1506 13.4437 19.0301L14.1254 17.142C17.8149 16.1779 20.5018 12.7231 20.5018 8.82642ZM14.7671 8.82642C14.7671 10.353 13.5239 11.5983 12 11.5983C10.4761 11.5983 9.23289 10.353 9.23289 8.82642C9.23289 7.29989 10.4761 6.05457 12 6.05457C13.5239 6.05457 14.7671 7.29989 14.7671 8.82642ZM17.4139 21.3199C17.0129 21.7216 15.0478 22.3242 12 22.3242C8.99227 22.3242 7.02723 21.7216 6.58609 21.3199C6.94702 20.9583 8.59124 20.4361 11.0776 20.3557L11.5188 21.5207C11.599 21.7216 11.7594 21.8421 12 21.8421C12.2005 21.8421 12.401 21.7216 12.4812 21.5207L12.8823 20.3557C15.4087 20.4361 17.0129 20.9583 17.4139 21.3199Z" fill="black"/>
</svg>
