<svg width="53" height="53" viewBox="0 0 53 53" fill="none" xmlns="http://www.w3.org/2000/svg">
<g filter="url(#filter0_d_161_1580)">
<path d="M4 10C4 5.58172 7.58172 2 12 2H41C45.4183 2 49 5.58172 49 10V39C49 43.4183 45.4183 47 41 47H12C7.58172 47 4 43.4183 4 39V10Z" fill="#FF1D6C"/>
<mask id="path-2-outside-1_161_1580" maskUnits="userSpaceOnUse" x="19.5813" y="17.5813" width="14" height="14" fill="black">
<rect fill="white" x="19.5813" y="17.5813" width="14" height="14"/>
<path fill-rule="evenodd" clip-rule="evenodd" d="M32.1258 20.2884C32.5163 19.8979 32.5163 19.2647 32.1258 18.8742C31.7353 18.4837 31.1021 18.4837 30.7116 18.8742L26.5 23.0858L22.2884 18.8742C21.8979 18.4837 21.2647 18.4837 20.8742 18.8742C20.4837 19.2647 20.4837 19.8979 20.8742 20.2884L25.0858 24.5L20.8742 28.7116C20.4837 29.1021 20.4837 29.7353 20.8742 30.1258C21.2647 30.5163 21.8979 30.5163 22.2884 30.1258L26.5 25.9142L30.7116 30.1258C31.1021 30.5163 31.7353 30.5163 32.1258 30.1258C32.5163 29.7353 32.5163 29.1021 32.1258 28.7116L27.9142 24.5L32.1258 20.2884Z"/>
</mask>
<path fill-rule="evenodd" clip-rule="evenodd" d="M32.1258 20.2884C32.5163 19.8979 32.5163 19.2647 32.1258 18.8742C31.7353 18.4837 31.1021 18.4837 30.7116 18.8742L26.5 23.0858L22.2884 18.8742C21.8979 18.4837 21.2647 18.4837 20.8742 18.8742C20.4837 19.2647 20.4837 19.8979 20.8742 20.2884L25.0858 24.5L20.8742 28.7116C20.4837 29.1021 20.4837 29.7353 20.8742 30.1258C21.2647 30.5163 21.8979 30.5163 22.2884 30.1258L26.5 25.9142L30.7116 30.1258C31.1021 30.5163 31.7353 30.5163 32.1258 30.1258C32.5163 29.7353 32.5163 29.1021 32.1258 28.7116L27.9142 24.5L32.1258 20.2884Z" fill="white"/>
<path d="M32.1258 18.8742L31.4187 19.5813L31.4187 19.5813L32.1258 18.8742ZM32.1258 20.2884L31.4187 19.5813V19.5813L32.1258 20.2884ZM30.7116 18.8742L31.4187 19.5813L31.4187 19.5813L30.7116 18.8742ZM26.5 23.0858L25.7929 23.7929C25.9804 23.9804 26.2348 24.0858 26.5 24.0858C26.7652 24.0858 27.0196 23.9804 27.2071 23.7929L26.5 23.0858ZM22.2884 18.8742L22.9955 18.1671V18.1671L22.2884 18.8742ZM20.8742 18.8742L21.5813 19.5813L21.5813 19.5813L20.8742 18.8742ZM20.8742 20.2884L20.1671 20.9955H20.1671L20.8742 20.2884ZM25.0858 24.5L25.7929 25.2071C25.9804 25.0196 26.0858 24.7652 26.0858 24.5C26.0858 24.2348 25.9804 23.9804 25.7929 23.7929L25.0858 24.5ZM20.8742 28.7116L21.5813 29.4187L21.5813 29.4187L20.8742 28.7116ZM20.8742 30.1258L21.5813 29.4187L21.5813 29.4187L20.8742 30.1258ZM22.2884 30.1258L21.5813 29.4187H21.5813L22.2884 30.1258ZM26.5 25.9142L27.2071 25.2071C27.0196 25.0196 26.7652 24.9142 26.5 24.9142C26.2348 24.9142 25.9804 25.0196 25.7929 25.2071L26.5 25.9142ZM30.7116 30.1258L31.4187 29.4187L31.4187 29.4187L30.7116 30.1258ZM32.1258 30.1258L31.4187 29.4187L31.4187 29.4187L32.1258 30.1258ZM32.1258 28.7116L31.4187 29.4187L31.4187 29.4187L32.1258 28.7116ZM27.9142 24.5L27.2071 23.7929C27.0196 23.9804 26.9142 24.2348 26.9142 24.5C26.9142 24.7652 27.0196 25.0196 27.2071 25.2071L27.9142 24.5ZM31.4187 19.5813V19.5813L32.8329 20.9955C33.614 20.2145 33.614 18.9481 32.8329 18.1671L31.4187 19.5813ZM31.4187 19.5813H31.4187L32.8329 18.1671C32.0519 17.386 30.7855 17.386 30.0045 18.1671L31.4187 19.5813ZM27.2071 23.7929L31.4187 19.5813L30.0045 18.1671L25.7929 22.3787L27.2071 23.7929ZM21.5813 19.5813L25.7929 23.7929L27.2071 22.3787L22.9955 18.1671L21.5813 19.5813ZM21.5813 19.5813V19.5813L22.9955 18.1671C22.2145 17.386 20.9481 17.386 20.1671 18.1671L21.5813 19.5813ZM21.5813 19.5813H21.5813L20.1671 18.1671C19.386 18.9481 19.386 20.2145 20.1671 20.9955L21.5813 19.5813ZM25.7929 23.7929L21.5813 19.5813L20.1671 20.9955L24.3787 25.2071L25.7929 23.7929ZM21.5813 29.4187L25.7929 25.2071L24.3787 23.7929L20.1671 28.0045L21.5813 29.4187ZM21.5813 29.4187V29.4187L20.1671 28.0045C19.386 28.7855 19.386 30.0519 20.1671 30.8329L21.5813 29.4187ZM21.5813 29.4187H21.5813L20.1671 30.8329C20.9481 31.614 22.2145 31.614 22.9955 30.8329L21.5813 29.4187ZM25.7929 25.2071L21.5813 29.4187L22.9955 30.8329L27.2071 26.6213L25.7929 25.2071ZM31.4187 29.4187L27.2071 25.2071L25.7929 26.6213L30.0045 30.8329L31.4187 29.4187ZM31.4187 29.4187H31.4187L30.0045 30.8329C30.7855 31.614 32.0519 31.614 32.8329 30.8329L31.4187 29.4187ZM31.4187 29.4187V29.4187L32.8329 30.8329C33.614 30.0519 33.614 28.7855 32.8329 28.0045L31.4187 29.4187ZM27.2071 25.2071L31.4187 29.4187L32.8329 28.0045L28.6213 23.7929L27.2071 25.2071ZM31.4187 19.5813L27.2071 23.7929L28.6213 25.2071L32.8329 20.9955L31.4187 19.5813Z" fill="white" mask="url(#path-2-outside-1_161_1580)"/>
</g>
<defs>
<filter id="filter0_d_161_1580" x="0" y="0" width="53" height="53" filterUnits="userSpaceOnUse" color-interpolation-filters="sRGB">
<feFlood flood-opacity="0" result="BackgroundImageFix"/>
<feColorMatrix in="SourceAlpha" type="matrix" values="0 0 0 0 0 0 0 0 0 0 0 0 0 0 0 0 0 0 127 0" result="hardAlpha"/>
<feOffset dy="2"/>
<feGaussianBlur stdDeviation="2"/>
<feComposite in2="hardAlpha" operator="out"/>
<feColorMatrix type="matrix" values="0 0 0 0 0.0509804 0 0 0 0 0.0431373 0 0 0 0 0.0470588 0 0 0 0.2 0"/>
<feBlend mode="normal" in2="BackgroundImageFix" result="effect1_dropShadow_161_1580"/>
<feBlend mode="normal" in="SourceGraphic" in2="effect1_dropShadow_161_1580" result="shape"/>
</filter>
</defs>
</svg>
