<svg width="20" height="20" viewBox="0 0 20 20" fill="none" xmlns="http://www.w3.org/2000/svg">
<path fill-rule="evenodd" clip-rule="evenodd" d="M2.68649 3.33726C2.68834 3.33726 2.642 3.38546 2.58361 3.44292C2.35933 3.66072 1.895 4.11393 1.89032 5.06207C1.88295 6.38834 2.75507 8.85089 6.95443 13.0494C11.1343 17.2274 13.5931 18.1098 14.9222 18.1098H14.9416C15.8898 18.1051 16.342 17.6399 16.5608 17.4165C16.6275 17.3479 16.6813 17.2979 16.7192 17.2664C17.6423 16.3377 18.115 15.6463 18.1104 15.2033C18.1039 14.751 17.5413 14.2162 16.7637 13.4766C16.5163 13.2412 16.2475 12.9854 15.9639 12.7018C15.2289 11.9687 14.8647 12.0938 14.064 12.3756C12.9564 12.7639 11.4365 13.2922 9.07496 10.9297C6.70975 8.56636 7.23896 7.04823 7.62636 5.94069C7.90626 5.13992 8.03416 4.77475 7.29827 4.03886C7.01004 3.75155 6.75146 3.47907 6.51327 3.22883C5.77831 2.45586 5.24818 1.89699 4.79868 1.8905H4.79126C4.34732 1.8905 3.65778 2.36503 2.68186 3.34097C2.68464 3.33819 2.68649 3.33726 2.68649 3.33726ZM14.9231 19.5C12.6135 19.5 9.60231 17.6612 5.97201 14.0327C2.32782 10.3894 0.486253 7.36891 0.500077 5.05465C0.508497 3.52541 1.31018 2.74225 1.6114 2.44845C1.62715 2.42898 1.68091 2.37615 1.69944 2.35762C3.02848 1.02764 3.9247 0.490085 4.81629 0.500138C5.85153 0.514183 6.58834 1.289 7.52071 2.2705C7.75148 2.51332 8.00172 2.77747 8.28069 3.05551C9.63382 4.40866 9.24827 5.5125 8.93872 6.39853C8.60136 7.3652 8.30942 8.19934 10.0574 9.94731C11.8072 11.6953 12.6413 11.4033 13.6043 11.0632C14.4912 10.7536 15.5923 10.3662 16.9472 11.7194C17.2216 11.9937 17.482 12.2412 17.7221 12.4701C18.7082 13.4071 19.4867 14.1476 19.4998 15.1857C19.5108 16.0708 18.9732 16.9726 17.6461 18.3007L17.0585 17.9022L17.5552 18.3878C17.2614 18.689 16.4792 19.4917 14.9491 19.5H14.9231Z" fill="#FF1D6C"/>
</svg>
