<svg width="24" height="24" viewBox="0 0 24 24" fill="none" xmlns="http://www.w3.org/2000/svg">
<path fill-rule="evenodd" clip-rule="evenodd" d="M17.9218 4.26746C19.8943 4.26746 21.4991 5.85639 21.4991 7.80853L21.5 10.1009C21.5 10.2759 21.4302 10.4455 21.3056 10.5693C21.1819 10.6939 21.0131 10.7637 20.8372 10.7637C20.1417 10.7637 19.5761 11.3187 19.5761 12.0009C19.5761 12.6831 20.1417 13.2381 20.8372 13.2381C21.2031 13.2381 21.5 13.535 21.5 13.9009V16.1915C21.5 18.1436 19.8952 19.7326 17.9227 19.7326H6.0773C4.10484 19.7326 2.5 18.1436 2.5 16.1915V13.9009C2.5 13.535 2.79693 13.2381 3.16279 13.2381C3.85828 13.2381 4.42386 12.6831 4.42386 12.0009C4.42386 11.3381 3.88126 10.8379 3.16279 10.8379C2.98693 10.8379 2.81814 10.7681 2.69442 10.6435C2.56981 10.5198 2.5 10.3501 2.5 10.1751L2.50088 7.80853C2.50088 5.85639 4.10572 4.26746 6.07819 4.26746H17.9218ZM17.9218 5.59304H14.2968L14.2973 7.29084C14.2973 7.6567 14.0004 7.95363 13.6345 7.95363C13.2687 7.95363 12.9717 7.6567 12.9717 7.29084L12.9712 5.59304H6.07819C4.83656 5.59304 3.82647 6.58722 3.82647 7.80853L3.82558 9.59187C4.94526 9.86671 5.74944 10.8264 5.74944 12.0009C5.74944 13.1869 4.93112 14.1872 3.82558 14.478V16.1915C3.82558 17.4128 4.83567 18.407 6.0773 18.407H12.9712L12.9717 17.0916C12.9717 16.7248 13.2687 16.4288 13.6345 16.4288C14.0004 16.4288 14.2973 16.7248 14.2973 17.0916L14.2968 18.407H17.9227C19.1643 18.407 20.1744 17.4128 20.1744 16.1915V14.478C19.0689 14.1872 18.2506 13.1869 18.2506 12.0009C18.2506 10.8141 19.068 9.81457 20.1744 9.52383L20.1735 7.80853C20.1735 6.58722 19.1634 5.59304 17.9218 5.59304ZM13.6345 9.1319C14.0004 9.1319 14.2973 9.42883 14.2973 9.79469V14.0551C14.2973 14.421 14.0004 14.7179 13.6345 14.7179C13.2687 14.7179 12.9717 14.421 12.9717 14.0551V9.79469C12.9717 9.42883 13.2687 9.1319 13.6345 9.1319Z" fill="black"/>
</svg>
