<svg width="20" height="16" viewBox="0 0 20 16" fill="none" xmlns="http://www.w3.org/2000/svg">
<path fill-rule="evenodd" clip-rule="evenodd" d="M15.9218 0.267578C17.8943 0.267578 19.4991 1.85651 19.4991 3.80865L19.5 6.10102C19.5 6.276 19.4302 6.44567 19.3056 6.56939C19.1819 6.694 19.0131 6.76381 18.8372 6.76381C18.1417 6.76381 17.5761 7.31879 17.5761 8.00102C17.5761 8.68325 18.1417 9.23823 18.8372 9.23823C19.2031 9.23823 19.5 9.53516 19.5 9.90102V12.1916C19.5 14.1438 17.8952 15.7327 15.9227 15.7327H4.0773C2.10484 15.7327 0.5 14.1438 0.5 12.1916V9.90102C0.5 9.53516 0.79693 9.23823 1.16279 9.23823C1.85828 9.23823 2.42386 8.68325 2.42386 8.00102C2.42386 7.33823 1.88126 6.83804 1.16279 6.83804C0.98693 6.83804 0.81814 6.76823 0.694419 6.64362C0.569814 6.5199 0.5 6.35023 0.5 6.17525L0.500884 3.80865C0.500884 1.85651 2.10572 0.267578 4.07819 0.267578H15.9218ZM15.9218 1.59316H12.2968L12.2973 3.29096C12.2973 3.65682 12.0004 3.95375 11.6345 3.95375C11.2687 3.95375 10.9717 3.65682 10.9717 3.29096L10.9712 1.59316H4.07819C2.83656 1.59316 1.82647 2.58735 1.82647 3.80865L1.82558 5.592C2.94526 5.86683 3.74944 6.82656 3.74944 8.00102C3.74944 9.18697 2.93112 10.1873 1.82558 10.4781V12.1916C1.82558 13.4129 2.83567 14.4071 4.0773 14.4071H10.9712L10.9717 13.0917C10.9717 12.725 11.2687 12.4289 11.6345 12.4289C12.0004 12.4289 12.2973 12.725 12.2973 13.0917L12.2968 14.4071H15.9227C17.1643 14.4071 18.1744 13.4129 18.1744 12.1916V10.4781C17.0689 10.1873 16.2506 9.18697 16.2506 8.00102C16.2506 6.81418 17.068 5.81469 18.1744 5.52395L18.1735 3.80865C18.1735 2.58735 17.1634 1.59316 15.9218 1.59316ZM11.6345 5.13202C12.0004 5.13202 12.2973 5.42895 12.2973 5.79481V10.0552C12.2973 10.4211 12.0004 10.718 11.6345 10.718C11.2687 10.718 10.9717 10.4211 10.9717 10.0552V5.79481C10.9717 5.42895 11.2687 5.13202 11.6345 5.13202Z" fill="#FF1D6C"/>
</svg>
