<svg width="494" height="53" viewBox="0 0 494 53" fill="none" xmlns="http://www.w3.org/2000/svg">
<g filter="url(#filter0_d_5790:5558)">
<path d="M33.0342 34.7461L37.8193 9.45312H45.1191L37.2334 45H29.8604L24.0742 21.2207L18.2881 45H10.915L3.0293 9.45312H10.3291L15.1387 34.6973L20.998 9.45312H27.1992L33.0342 34.7461ZM60.0117 45.4883C56.138 45.4883 52.9805 44.3001 50.5391 41.9238C48.1139 39.5475 46.9014 36.3818 46.9014 32.4268V31.7432C46.9014 29.0902 47.4141 26.722 48.4395 24.6387C49.4648 22.5391 50.9134 20.9277 52.7852 19.8047C54.6732 18.6654 56.8216 18.0957 59.2305 18.0957C62.8438 18.0957 65.6839 19.235 67.751 21.5137C69.8343 23.7923 70.876 27.0231 70.876 31.2061V34.0869H54.0547C54.2826 35.8122 54.9661 37.1956 56.1055 38.2373C57.2611 39.279 58.7178 39.7998 60.4756 39.7998C63.1937 39.7998 65.3177 38.8151 66.8477 36.8457L70.3145 40.7275C69.2565 42.2249 67.8242 43.3968 66.0176 44.2432C64.2109 45.0732 62.209 45.4883 60.0117 45.4883ZM59.2061 23.8086C57.8063 23.8086 56.667 24.2806 55.7881 25.2246C54.9255 26.1686 54.3721 27.5195 54.1279 29.2773H63.9424V28.7158C63.9098 27.1533 63.4867 25.9489 62.6729 25.1025C61.859 24.2399 60.7035 23.8086 59.2061 23.8086ZM82.3506 45H75.2705V7.5H82.3506V45ZM99.1719 39.7998C100.474 39.7998 101.532 39.4417 102.346 38.7256C103.16 38.0094 103.583 37.0573 103.615 35.8691H110.231C110.215 37.6595 109.727 39.3034 108.767 40.8008C107.806 42.2819 106.488 43.4375 104.812 44.2676C103.151 45.0814 101.312 45.4883 99.2939 45.4883C95.5179 45.4883 92.5394 44.292 90.3584 41.8994C88.1774 39.4906 87.0869 36.1702 87.0869 31.9385V31.4746C87.0869 27.4056 88.1693 24.1585 90.334 21.7334C92.4987 19.3083 95.4691 18.0957 99.2451 18.0957C102.549 18.0957 105.194 19.0397 107.18 20.9277C109.182 22.7995 110.199 25.2979 110.231 28.4229H103.615C103.583 27.0557 103.16 25.9489 102.346 25.1025C101.532 24.2399 100.458 23.8086 99.123 23.8086C97.4792 23.8086 96.234 24.4108 95.3877 25.6152C94.5576 26.8034 94.1426 28.7402 94.1426 31.4258V32.1582C94.1426 34.8763 94.5576 36.8294 95.3877 38.0176C96.2178 39.2057 97.4792 39.7998 99.1719 39.7998ZM149.147 18.584L149.367 21.5381C151.239 19.2432 153.77 18.0957 156.96 18.0957C160.362 18.0957 162.697 19.4385 163.967 22.124C165.822 19.4385 168.467 18.0957 171.901 18.0957C174.766 18.0957 176.898 18.9339 178.298 20.6104C179.698 22.2705 180.397 24.777 180.397 28.1299V45H173.317V28.1543C173.317 26.6569 173.024 25.5664 172.438 24.8828C171.853 24.1829 170.819 23.833 169.338 23.833C167.222 23.833 165.757 24.8421 164.943 26.8604L164.968 45H157.912V28.1787C157.912 26.6488 157.611 25.542 157.009 24.8584C156.407 24.1748 155.381 23.833 153.933 23.833C151.931 23.833 150.482 24.6631 149.587 26.3232V45H142.531V18.584H149.147ZM198 45.4883C194.126 45.4883 190.969 44.3001 188.527 41.9238C186.102 39.5475 184.89 36.3818 184.89 32.4268V31.7432C184.89 29.0902 185.402 26.722 186.428 24.6387C187.453 22.5391 188.902 20.9277 190.773 19.8047C192.661 18.6654 194.81 18.0957 197.219 18.0957C200.832 18.0957 203.672 19.235 205.739 21.5137C207.823 23.7923 208.864 27.0231 208.864 31.2061V34.0869H192.043C192.271 35.8122 192.954 37.1956 194.094 38.2373C195.249 39.279 196.706 39.7998 198.464 39.7998C201.182 39.7998 203.306 38.8151 204.836 36.8457L208.303 40.7275C207.245 42.2249 205.812 43.3968 204.006 44.2432C202.199 45.0732 200.197 45.4883 198 45.4883ZM197.194 23.8086C195.795 23.8086 194.655 24.2806 193.776 25.2246C192.914 26.1686 192.36 27.5195 192.116 29.2773H201.931V28.7158C201.898 27.1533 201.475 25.9489 200.661 25.1025C199.847 24.2399 198.692 23.8086 197.194 23.8086ZM233.791 12.0898V18.584H238.308V23.7598H233.791V36.9434C233.791 37.9199 233.978 38.6198 234.353 39.043C234.727 39.4661 235.443 39.6777 236.501 39.6777C237.282 39.6777 237.974 39.6208 238.576 39.5068V44.8535C237.193 45.2767 235.769 45.4883 234.304 45.4883C229.356 45.4883 226.833 42.9899 226.735 37.9932V23.7598H222.878V18.584H226.735V12.0898H233.791Z" fill="white"/>
<path d="M113.161 31.5479C113.161 28.9274 113.666 26.5918 114.675 24.541C115.684 22.4902 117.132 20.9033 119.021 19.7803C120.925 18.6572 123.13 18.0957 125.637 18.0957C129.201 18.0957 132.106 19.1862 134.353 21.3672C136.615 23.5482 137.876 26.5104 138.137 30.2539L138.186 32.0605C138.186 36.1133 137.054 39.3685 134.792 41.8262C132.53 44.2676 129.494 45.4883 125.686 45.4883C121.877 45.4883 118.833 44.2676 116.555 41.8262C114.292 39.3848 113.161 36.0645 113.161 31.8652V31.5479ZM120.217 32.0605C120.217 34.5671 120.689 36.4876 121.633 37.8223C122.577 39.1406 123.928 39.7998 125.686 39.7998C127.395 39.7998 128.729 39.1488 129.689 37.8467C130.65 36.5283 131.13 34.4287 131.13 31.5479C131.13 29.0902 130.65 27.1859 129.689 25.835C128.729 24.484 127.378 23.8086 125.637 23.8086C123.911 23.8086 122.577 24.484 121.633 25.835C120.689 27.1696 120.217 29.2448 120.217 32.0605ZM241.14 31.5479C241.14 28.9274 241.644 26.5918 242.653 24.541C243.662 22.4902 245.111 20.9033 246.999 19.7803C248.903 18.6572 251.109 18.0957 253.615 18.0957C257.18 18.0957 260.085 19.1862 262.331 21.3672C264.593 23.5482 265.855 26.5104 266.115 30.2539L266.164 32.0605C266.164 36.1133 265.033 39.3685 262.771 41.8262C260.508 44.2676 257.473 45.4883 253.664 45.4883C249.855 45.4883 246.812 44.2676 244.533 41.8262C242.271 39.3848 241.14 36.0645 241.14 31.8652V31.5479ZM248.195 32.0605C248.195 34.5671 248.667 36.4876 249.611 37.8223C250.555 39.1406 251.906 39.7998 253.664 39.7998C255.373 39.7998 256.708 39.1488 257.668 37.8467C258.628 36.5283 259.108 34.4287 259.108 31.5479C259.108 29.0902 258.628 27.1859 257.668 25.835C256.708 24.484 255.357 23.8086 253.615 23.8086C251.89 23.8086 250.555 24.484 249.611 25.835C248.667 27.1696 248.195 29.2448 248.195 32.0605ZM316.169 9.46289H303.103V45H294.313V9.46289H281.423V2.34375H316.169V9.46289ZM334.099 45C333.708 44.2383 333.425 43.291 333.249 42.1582C331.198 44.4434 328.532 45.5859 325.251 45.5859C322.146 45.5859 319.567 44.6875 317.517 42.8906C315.485 41.0938 314.47 38.8281 314.47 36.0938C314.47 32.7344 315.71 30.1562 318.19 28.3594C320.69 26.5625 324.294 25.6543 329.001 25.6348H332.897V23.8184C332.897 22.3535 332.517 21.1816 331.755 20.3027C331.013 19.4238 329.831 18.9844 328.21 18.9844C326.784 18.9844 325.661 19.3262 324.841 20.0098C324.04 20.6934 323.64 21.6309 323.64 22.8223H315.173C315.173 20.9863 315.739 19.2871 316.872 17.7246C318.005 16.1621 319.606 14.9414 321.677 14.0625C323.747 13.1641 326.071 12.7148 328.649 12.7148C332.556 12.7148 335.651 13.7012 337.937 15.6738C340.241 17.627 341.394 20.3809 341.394 23.9355V37.6758C341.413 40.6836 341.833 42.959 342.653 44.502V45H334.099ZM327.097 39.1113C328.347 39.1113 329.499 38.8379 330.554 38.291C331.608 37.7246 332.39 36.9727 332.897 36.0352V30.5859H329.733C325.495 30.5859 323.239 32.0508 322.966 34.9805L322.937 35.4785C322.937 36.5332 323.308 37.4023 324.05 38.0859C324.792 38.7695 325.808 39.1113 327.097 39.1113ZM356.833 45H348.337V13.3008H356.833V45ZM347.839 5.09766C347.839 3.82813 348.259 2.7832 349.099 1.96289C349.958 1.14258 351.12 0.732422 352.585 0.732422C354.03 0.732422 355.183 1.14258 356.042 1.96289C356.901 2.7832 357.331 3.82813 357.331 5.09766C357.331 6.38672 356.892 7.44141 356.013 8.26172C355.153 9.08203 354.011 9.49219 352.585 9.49219C351.159 9.49219 350.007 9.08203 349.128 8.26172C348.269 7.44141 347.839 6.38672 347.839 5.09766ZM391.403 33.4863L395.563 13.3008H403.737L395.651 45H388.562L382.556 25.0488L376.55 45H369.489L361.403 13.3008H369.577L373.708 33.457L379.509 13.3008H385.632L391.403 33.4863ZM426.325 45C425.935 44.2383 425.651 43.291 425.476 42.1582C423.425 44.4434 420.759 45.5859 417.478 45.5859C414.372 45.5859 411.794 44.6875 409.743 42.8906C407.712 41.0938 406.696 38.8281 406.696 36.0938C406.696 32.7344 407.937 30.1562 410.417 28.3594C412.917 26.5625 416.521 25.6543 421.228 25.6348H425.124V23.8184C425.124 22.3535 424.743 21.1816 423.981 20.3027C423.239 19.4238 422.058 18.9844 420.437 18.9844C419.011 18.9844 417.888 19.3262 417.067 20.0098C416.267 20.6934 415.866 21.6309 415.866 22.8223H407.399C407.399 20.9863 407.966 19.2871 409.099 17.7246C410.231 16.1621 411.833 14.9414 413.903 14.0625C415.974 13.1641 418.298 12.7148 420.876 12.7148C424.782 12.7148 427.878 13.7012 430.163 15.6738C432.468 17.627 433.62 20.3809 433.62 23.9355V37.6758C433.64 40.6836 434.06 42.959 434.88 44.502V45H426.325ZM419.323 39.1113C420.573 39.1113 421.726 38.8379 422.78 38.291C423.835 37.7246 424.616 36.9727 425.124 36.0352V30.5859H421.96C417.722 30.5859 415.466 32.0508 415.192 34.9805L415.163 35.4785C415.163 36.5332 415.534 37.4023 416.276 38.0859C417.019 38.7695 418.034 39.1113 419.323 39.1113ZM447.917 13.3008L448.181 16.9629C450.446 14.1309 453.483 12.7148 457.292 12.7148C460.651 12.7148 463.151 13.7012 464.792 15.6738C466.433 17.6465 467.272 20.5957 467.312 24.5215V45H458.845V24.7266C458.845 22.9297 458.454 21.6309 457.673 20.8301C456.892 20.0098 455.593 19.5996 453.776 19.5996C451.394 19.5996 449.606 20.6152 448.415 22.6465V45H439.948V13.3008H447.917ZM474.196 9.84375C474.196 7.61719 474.987 5.71289 476.569 4.13086C478.151 2.54883 480.017 1.75781 482.165 1.75781C484.294 1.75781 486.13 2.54883 487.673 4.13086C489.235 5.69336 490.017 7.59766 490.017 9.84375C490.017 12.0898 489.235 13.9844 487.673 15.5273C486.13 17.0508 484.294 17.8125 482.165 17.8125C480.056 17.8125 478.2 17.0508 476.599 15.5273C474.997 13.9844 474.196 12.0898 474.196 9.84375ZM482.165 13.4766C483.2 13.4766 484.05 13.1348 484.714 12.4512C485.397 11.748 485.739 10.8789 485.739 9.84375C485.739 8.82812 485.397 7.94922 484.714 7.20703C484.05 6.46484 483.2 6.09375 482.165 6.09375C481.13 6.09375 480.261 6.46484 479.558 7.20703C478.854 7.94922 478.503 8.82812 478.503 9.84375C478.503 10.8594 478.854 11.7188 479.558 12.4219C480.28 13.125 481.149 13.4766 482.165 13.4766Z" fill="#FF1D6C"/>
</g>
<defs>
<filter id="filter0_d_5790:5558" x="0.0292969" y="0.732422" width="492.987" height="51.8535" filterUnits="userSpaceOnUse" color-interpolation-filters="sRGB">
<feFlood flood-opacity="0" result="BackgroundImageFix"/>
<feColorMatrix in="SourceAlpha" type="matrix" values="0 0 0 0 0 0 0 0 0 0 0 0 0 0 0 0 0 0 127 0" result="hardAlpha"/>
<feOffset dy="4"/>
<feGaussianBlur stdDeviation="1.5"/>
<feComposite in2="hardAlpha" operator="out"/>
<feColorMatrix type="matrix" values="0 0 0 0 0.0509804 0 0 0 0 0.0431373 0 0 0 0 0.0470588 0 0 0 0.2 0"/>
<feBlend mode="normal" in2="BackgroundImageFix" result="effect1_dropShadow_5790:5558"/>
<feBlend mode="normal" in="SourceGraphic" in2="effect1_dropShadow_5790:5558" result="shape"/>
</filter>
</defs>
</svg>
